<mxfile host="app.diagrams.net" modified="2021-05-26T00:38:22.892Z" agent="5.0 (Windows NT 6.1; WOW64) AppleWebKit/537.36 (KHTML, like Gecko) Chrome/90.0.4430.212 Safari/537.36" etag="qQNpKehq8r8jK-HVAq1u" version="14.7.0" type="github">
  <diagram id="_byOAht_BGLu1u4PQ6qE" name="Page-1">
    <mxGraphModel dx="868" dy="393" grid="1" gridSize="10" guides="1" tooltips="1" connect="1" arrows="1" fold="1" page="1" pageScale="1" pageWidth="827" pageHeight="1169" math="0" shadow="0">
      <root>
        <mxCell id="0" />
        <mxCell id="1" parent="0" />
        <mxCell id="bGgMhGyFISEgwM_lC4qm-4" style="edgeStyle=orthogonalEdgeStyle;rounded=0;orthogonalLoop=1;jettySize=auto;html=1;entryX=0.5;entryY=0;entryDx=0;entryDy=0;" edge="1" parent="1" source="bGgMhGyFISEgwM_lC4qm-1" target="bGgMhGyFISEgwM_lC4qm-3">
          <mxGeometry relative="1" as="geometry" />
        </mxCell>
        <mxCell id="bGgMhGyFISEgwM_lC4qm-1" value="start" style="ellipse;whiteSpace=wrap;html=1;" vertex="1" parent="1">
          <mxGeometry x="370" y="20" width="120" height="80" as="geometry" />
        </mxCell>
        <mxCell id="bGgMhGyFISEgwM_lC4qm-6" style="edgeStyle=orthogonalEdgeStyle;rounded=0;orthogonalLoop=1;jettySize=auto;html=1;entryX=0.5;entryY=0;entryDx=0;entryDy=0;" edge="1" parent="1" source="bGgMhGyFISEgwM_lC4qm-3" target="bGgMhGyFISEgwM_lC4qm-5">
          <mxGeometry relative="1" as="geometry" />
        </mxCell>
        <mxCell id="bGgMhGyFISEgwM_lC4qm-3" value="&lt;span&gt;data = [13,31,27,96,108,201]&lt;br&gt;sum = 0&lt;br&gt;i = 0&lt;br&gt;&lt;/span&gt;" style="shape=parallelogram;perimeter=parallelogramPerimeter;whiteSpace=wrap;html=1;fixedSize=1;" vertex="1" parent="1">
          <mxGeometry x="355" y="180" width="150" height="70" as="geometry" />
        </mxCell>
        <mxCell id="bGgMhGyFISEgwM_lC4qm-8" style="edgeStyle=orthogonalEdgeStyle;rounded=0;orthogonalLoop=1;jettySize=auto;html=1;entryX=0.5;entryY=0;entryDx=0;entryDy=0;" edge="1" parent="1" source="bGgMhGyFISEgwM_lC4qm-5" target="bGgMhGyFISEgwM_lC4qm-7">
          <mxGeometry relative="1" as="geometry" />
        </mxCell>
        <mxCell id="bGgMhGyFISEgwM_lC4qm-12" style="edgeStyle=orthogonalEdgeStyle;rounded=0;orthogonalLoop=1;jettySize=auto;html=1;exitX=1;exitY=0.5;exitDx=0;exitDy=0;entryX=0;entryY=0.5;entryDx=0;entryDy=0;" edge="1" parent="1" source="bGgMhGyFISEgwM_lC4qm-5" target="bGgMhGyFISEgwM_lC4qm-9">
          <mxGeometry relative="1" as="geometry" />
        </mxCell>
        <mxCell id="bGgMhGyFISEgwM_lC4qm-5" value="i&amp;lt; data.length" style="rhombus;whiteSpace=wrap;html=1;" vertex="1" parent="1">
          <mxGeometry x="380" y="330" width="100" height="80" as="geometry" />
        </mxCell>
        <mxCell id="bGgMhGyFISEgwM_lC4qm-25" style="edgeStyle=orthogonalEdgeStyle;rounded=0;orthogonalLoop=1;jettySize=auto;html=1;entryX=0.5;entryY=0;entryDx=0;entryDy=0;" edge="1" parent="1" source="bGgMhGyFISEgwM_lC4qm-7" target="bGgMhGyFISEgwM_lC4qm-22">
          <mxGeometry relative="1" as="geometry" />
        </mxCell>
        <mxCell id="bGgMhGyFISEgwM_lC4qm-7" value="print sum&amp;nbsp;" style="shape=parallelogram;perimeter=parallelogramPerimeter;whiteSpace=wrap;html=1;fixedSize=1;" vertex="1" parent="1">
          <mxGeometry x="370" y="490" width="120" height="60" as="geometry" />
        </mxCell>
        <mxCell id="bGgMhGyFISEgwM_lC4qm-15" style="edgeStyle=orthogonalEdgeStyle;rounded=0;orthogonalLoop=1;jettySize=auto;html=1;exitX=1;exitY=0.5;exitDx=0;exitDy=0;" edge="1" parent="1" source="bGgMhGyFISEgwM_lC4qm-9" target="bGgMhGyFISEgwM_lC4qm-13">
          <mxGeometry relative="1" as="geometry" />
        </mxCell>
        <mxCell id="bGgMhGyFISEgwM_lC4qm-17" style="edgeStyle=orthogonalEdgeStyle;rounded=0;orthogonalLoop=1;jettySize=auto;html=1;entryX=0.333;entryY=1.017;entryDx=0;entryDy=0;entryPerimeter=0;" edge="1" parent="1" source="bGgMhGyFISEgwM_lC4qm-9" target="bGgMhGyFISEgwM_lC4qm-11">
          <mxGeometry relative="1" as="geometry" />
        </mxCell>
        <mxCell id="bGgMhGyFISEgwM_lC4qm-9" value="i%2!=0" style="rhombus;whiteSpace=wrap;html=1;" vertex="1" parent="1">
          <mxGeometry x="580" y="390" width="80" height="80" as="geometry" />
        </mxCell>
        <mxCell id="bGgMhGyFISEgwM_lC4qm-10" value="false" style="text;html=1;align=center;verticalAlign=middle;resizable=0;points=[];autosize=1;strokeColor=none;" vertex="1" parent="1">
          <mxGeometry x="390" y="430" width="40" height="20" as="geometry" />
        </mxCell>
        <mxCell id="bGgMhGyFISEgwM_lC4qm-21" style="edgeStyle=orthogonalEdgeStyle;rounded=0;orthogonalLoop=1;jettySize=auto;html=1;" edge="1" parent="1" source="bGgMhGyFISEgwM_lC4qm-11">
          <mxGeometry relative="1" as="geometry">
            <mxPoint x="430" y="290" as="targetPoint" />
          </mxGeometry>
        </mxCell>
        <mxCell id="bGgMhGyFISEgwM_lC4qm-11" value="i ++" style="rounded=0;whiteSpace=wrap;html=1;" vertex="1" parent="1">
          <mxGeometry x="580" y="260" width="120" height="60" as="geometry" />
        </mxCell>
        <mxCell id="bGgMhGyFISEgwM_lC4qm-19" style="edgeStyle=orthogonalEdgeStyle;rounded=0;orthogonalLoop=1;jettySize=auto;html=1;entryX=1;entryY=0.25;entryDx=0;entryDy=0;" edge="1" parent="1" source="bGgMhGyFISEgwM_lC4qm-13" target="bGgMhGyFISEgwM_lC4qm-11">
          <mxGeometry relative="1" as="geometry" />
        </mxCell>
        <mxCell id="bGgMhGyFISEgwM_lC4qm-13" value="sum = sum + data [i]" style="rounded=0;whiteSpace=wrap;html=1;" vertex="1" parent="1">
          <mxGeometry x="700" y="400" width="120" height="60" as="geometry" />
        </mxCell>
        <mxCell id="bGgMhGyFISEgwM_lC4qm-14" value="true" style="text;html=1;align=center;verticalAlign=middle;resizable=0;points=[];autosize=1;strokeColor=none;" vertex="1" parent="1">
          <mxGeometry x="490" y="330" width="40" height="20" as="geometry" />
        </mxCell>
        <mxCell id="bGgMhGyFISEgwM_lC4qm-16" value="true" style="text;html=1;align=center;verticalAlign=middle;resizable=0;points=[];autosize=1;strokeColor=none;" vertex="1" parent="1">
          <mxGeometry x="650" y="400" width="40" height="20" as="geometry" />
        </mxCell>
        <mxCell id="bGgMhGyFISEgwM_lC4qm-18" value="false" style="text;html=1;align=center;verticalAlign=middle;resizable=0;points=[];autosize=1;strokeColor=none;" vertex="1" parent="1">
          <mxGeometry x="580" y="350" width="40" height="20" as="geometry" />
        </mxCell>
        <mxCell id="bGgMhGyFISEgwM_lC4qm-22" value="end" style="ellipse;whiteSpace=wrap;html=1;" vertex="1" parent="1">
          <mxGeometry x="370" y="630" width="120" height="80" as="geometry" />
        </mxCell>
      </root>
    </mxGraphModel>
  </diagram>
</mxfile>
